<?xml version="1.0" standalone="no"?>
<!DOCTYPE svg PUBLIC "-//W3C//DTD SVG 20010904//EN"
 "http://www.w3.org/TR/2001/REC-SVG-20010904/DTD/svg10.dtd">
<svg version="1.0" xmlns="http://www.w3.org/2000/svg"
 width="528.000000pt" height="528.000000pt" viewBox="0 0 528.000000 528.000000"
 preserveAspectRatio="xMidYMid meet">
<metadata>
Created by potrace 1.11, written by Peter Selinger 2001-2013
</metadata>
<g transform="translate(0.000000,528.000000) scale(0.100000,-0.100000)"
fill="#000000" stroke="none">
<path d="M2490 5070 c-198 -27 -310 -54 -415 -101 -110 -49 -244 -167 -339
-298 -43 -59 -55 -68 -144 -111 -699 -335 -1192 -997 -1324 -1780 -23 -142
-33 -499 -17 -630 39 -316 104 -538 235 -806 193 -396 475 -715 854 -964 287
-188 688 -330 1040 -369 109 -11 410 -11 520 0 328 36 700 162 985 334 210
127 457 341 610 530 268 330 439 707 517 1142 19 112 22 160 22 383 0 248 -7
326 -48 515 -57 267 -189 577 -345 811 -229 343 -528 612 -894 804 -100 53
-117 66 -146 110 -46 70 -122 151 -194 206 -119 90 -335 180 -512 214 -73 14
-329 20 -405 10z"/>
</g>
</svg>
